<?xml version="1.0" encoding="UTF-8" standalone="no"?>
<svg
   xmlns:dc="http://purl.org/dc/elements/1.1/"
   xmlns:cc="http://creativecommons.org/ns#"
   xmlns:rdf="http://www.w3.org/1999/02/22-rdf-syntax-ns#"
   xmlns:svg="http://www.w3.org/2000/svg"
   xmlns="http://www.w3.org/2000/svg"
   xmlns:sodipodi="http://sodipodi.sourceforge.net/DTD/sodipodi-0.dtd"
   xmlns:inkscape="http://www.inkscape.org/namespaces/inkscape"
   id="e7626cff-48c9-4841-abeb-06035e231c26"
   data-name="Layer 1"
   width="1024"
   height="1024"
   viewBox="0 0 1024 1024"
   version="1.1"
   sodipodi:docname="my-simple-logo.svg"
   inkscape:version="0.92.5 (2060ec1f9f, 2020-04-08)">
  <metadata
     id="metadata89">
    <rdf:RDF>
      <cc:Work
         rdf:about="">
        <dc:format>image/svg+xml</dc:format>
        <dc:type
           rdf:resource="http://purl.org/dc/dcmitype/StillImage" />
        <dc:title />
      </cc:Work>
    </rdf:RDF>
  </metadata>
  <defs
     id="defs87" />
  <sodipodi:namedview
     pagecolor="#ffffff"
     bordercolor="#666666"
     borderopacity="1"
     objecttolerance="10"
     gridtolerance="10"
     guidetolerance="10"
     inkscape:pageopacity="0"
     inkscape:pageshadow="2"
     inkscape:window-width="1848"
     inkscape:window-height="1016"
     id="namedview85"
     showgrid="false"
     inkscape:zoom="0.68177791"
     inkscape:cx="556.36019"
     inkscape:cy="500.9696"
     inkscape:window-x="72"
     inkscape:window-y="27"
     inkscape:window-maximized="1"
     inkscape:current-layer="g932" />
  <g
     id="g932"
     transform="matrix(4.1838811,0,0,4.4206261,-1345.2281,-304.96089)">
    <path
       style="fill:#3182ce;stroke-width:0.97335213"
       inkscape:connector-curvature="0"
       id="path14"
       d="m 566.26615,68.985904 -0.0542,152.120066 c -33.9839,1.08744 -64.69199,21.04509 -77.73586,50.79573 -0.27979,0.63476 -0.54981,1.26953 -0.81006,1.9043 -3.49137,8.57148 -5.43518,17.63856 -5.75,26.8213 H 321.52639 V 184.96694 h 125.02 V 69.306589 Z"
       sodipodi:nodetypes="cccccccccc" />
    <path
       style="fill:#3182ce;stroke-width:0.97345632"
       inkscape:connector-curvature="0"
       id="path14-6"
       d="m 321.52639,300.6273 0.0808,-152.45579 c 33.98657,-1.00987 64.52593,-20.7367 77.64563,-50.463746 0.28141,-0.634266 0.55305,-1.268553 0.81492,-1.902855 3.51321,-8.565307 5.48014,-17.629838 5.81837,-26.813804 l 160.38915,0.367193 -0.29494,115.684762 -116.09551,7.12474 -9.21905,108.27384 z"
       sodipodi:nodetypes="cccccccccc" />
    <path
       sodipodi:nodetypes="cccc"
       style="fill:none;fill-opacity:1;stroke:#ffffff;stroke-width:20.15227699;stroke-miterlimit:4;stroke-dasharray:none;stroke-opacity:1"
       inkscape:connector-curvature="0"
       id="path18"
       d="m 460.52821,168.41569 0.22913,-68.21439 c 25.72267,0.34811 65.22976,3.43929 65.31876,34.22104 0.12938,29.9306 -44.93849,33.74287 -65.54789,33.99335 z" />
    <rect
       transform="matrix(0.00419868,0.99999119,-0.99999224,0.00393847,0,0)"
       style="fill:#ffffff;fill-opacity:1;stroke-width:0.92870879"
       id="rect20"
       height="22.208006"
       width="108.88861"
       y="-410.81909"
       x="174.72002" />
    <rect
       style="fill:#ffffff;fill-opacity:1;stroke-width:0.87476873"
       id="rect22"
       height="20.892809"
       width="102.68867"
       y="157.83252"
       x="349.07291" />
    <rect
       transform="matrix(0.00360956,0.99999349,-0.99998951,0.00458123,0,0)"
       style="fill:#ffffff;fill-opacity:1;stroke-width:0.9810673"
       id="rect20-3"
       height="21.752077"
       width="124.05941"
       y="-472.05774"
       x="110.71712" />
  </g>
</svg>
