<svg xmlns="http://www.w3.org/2000/svg" viewBox="0 0 1024 1024">
  <g transform="matrix(4.1838811,0,0,4.4206261,-1345.2281,-304.96089)">
    <path
       style="fill:#3182CE;stroke-width:0.97335213;fill-opacity:1"
       d="m 566.26615,68.985904 0.19369,171.358606 c -33.9839,1.08744 -64.93988,1.80655 -77.98375,31.55719 -0.27979,0.63476 -0.54981,1.26953 -0.81006,1.9043 -3.49137,8.57148 -5.43518,17.63856 -5.75,26.8213 H 321.52639 V 184.96694 h 125.02 V 69.306589 Z" />
    <path
       style="fill:#3182CE;stroke-width:0.97345632;fill-opacity:1"
       d="m 321.52639,300.6273 0.0808,-167.94047 c 33.98657,-1.00987 64.52593,-5.25202 77.64563,-34.979066 0.28141,-0.634266 0.55305,-1.268553 0.81492,-1.902855 3.51321,-8.565307 5.48014,-17.629838 5.81837,-26.813804 l 160.38915,0.367193 -0.29494,115.684762 -116.09551,7.12474 -9.21905,108.27384 z" />
    <path
       style="fill:none;fill-opacity:1;stroke:#ffffff;stroke-width:20.31842041;stroke-miterlimit:4;stroke-dasharray:none;stroke-opacity:1"
       d="m 460.60811,168.33505 0.23347,-68.05314 c 26.21051,0.34728 66.46687,3.43116 66.55756,34.14015 0.13183,29.85985 -45.79077,33.66311 -66.79103,33.91299 z" />
    <rect
       transform="matrix(0.00426359,0.99999091,-0.99999248,0.00387851,0,0)"
       style="fill:#ffffff;fill-opacity:1;stroke-width:0.92161256"
       height="22.208"
       width="107.23097"
       y="-413.19791"
       x="174.70468" />
    <rect
       style="fill:#ffffff;fill-opacity:1;stroke-width:0.87476873"
       height="20.892809"
       width="102.68867"
       y="157.83252"
       x="349.07291" />
    <rect
       transform="matrix(0.00402821,0.99999189,-0.99999157,0.00410511,0,0)"
       style="fill:#ffffff;fill-opacity:1;stroke-width:0.9286871"
       height="21.752033"
       width="111.16596"
       y="-472.01132"
       x="110.49234" />
  </g>
</svg>
